<?xml version="1.0" encoding="UTF-8"?>
<svg width="1440px" height="500px" viewBox="0 0 1440 500" version="1.1" xmlns="http://www.w3.org/2000/svg" xmlns:xlink="http://www.w3.org/1999/xlink" xmlns:sketch="http://www.bohemiancoding.com/sketch/ns">
    <!-- Generator: Sketch 3.3.2 (12043) - http://www.bohemiancoding.com/sketch -->
    <title>Desktop HD</title>
    <desc>Created with Sketch.</desc>
    <defs>
        <linearGradient x1="27.059505%" y1="31.0625937%" x2="81.7867899%" y2="79.1251842%" id="linearGradient-1">
            <stop stop-color="#774377" offset="0%"></stop>
            <stop stop-color="#422042" offset="100%"></stop>
        </linearGradient>
    </defs>
    <g id="Page-1" stroke="none" stroke-width="1" fill="none" fill-rule="evenodd" sketch:type="MSPage">
        <g id="Desktop-HD" sketch:type="MSArtboardGroup">
            <rect id="Rectangle-1" stroke="#979797" fill="url(#linearGradient-1)" sketch:type="MSShapeGroup" x="0" y="-1" width="1471" height="523"></rect>
            <path d="M558.403136,424.480552 C561.852788,421.20172 564.005414,416.56971 564.005414,411.43559 L564.005414,341.247487 C564.005414,331.318141 555.948109,323.25 546.008919,323.25 L272.180053,323.25 C262.251938,323.25 254.183559,331.307749 254.183559,341.247487 L254.183559,411.43559 C254.183559,421.364936 262.240864,429.433077 272.180053,429.433077 L521.03642,429.433077 L558.545094,448.135385 C562.993984,450.353658 565.456809,448.29117 564.043812,443.521413 L558.403135,424.480555 Z" id="Rectangle-2" opacity="0.049999997" fill="#FFFFFF" sketch:type="MSShapeGroup"></path>
            <path d="M495.595286,598.787318 C502.447885,592.740196 506.7718,583.892433 506.7718,574.035319 L506.7718,532.001709 C506.7718,513.767335 491.996695,499 473.770679,499 L344.418294,499 C326.200648,499 311.417173,513.775369 311.417173,532.001709 L311.417173,574.035319 C311.417173,592.269693 326.192278,607.037028 344.418294,607.037028 L463.978241,607.037028 L495.881532,622.94442 C500.333341,625.164149 502.798571,623.102972 501.383858,618.32742 L495.595285,598.787321 Z" id="Rectangle-2-Copy-6" opacity="0.049999997" fill="#FFFFFF" sketch:type="MSShapeGroup"></path>
            <path d="M582.530495,153.835227 C586.918247,150.552967 589.759044,145.314786 589.759044,139.41319 L589.759044,16.9983471 C589.759044,7.0597475 581.702318,-1 571.763843,-1 L145.539759,-1 C135.603769,-1 127.544559,7.05813449 127.544559,16.9983471 L127.544559,139.41319 C127.544559,149.351789 135.601285,157.411537 145.539759,157.411537 L525.654814,157.411537 L585.57624,187.289131 C590.024546,189.507114 592.484339,187.43575 591.074237,182.675764 L582.530495,153.835227 Z" id="Rectangle-2-Copy-2" opacity="0.049999997" fill="#FFFFFF" sketch:type="MSShapeGroup"></path>
            <path d="M307.036365,295.316551 C309.766364,292.160954 311.417173,288.04653 311.417173,283.546357 L311.417173,192.748327 C311.417173,182.801893 303.357134,174.75 293.414572,174.75 L68.0651474,174.75 C58.1168666,174.75 50.0625465,182.808125 50.0625465,192.748327 L50.0625465,283.546357 C50.0625465,293.492791 58.1225855,301.544684 68.0651474,301.544684 L279.251306,301.544684 L313.586741,323.779279 C317.760875,326.482324 319.574318,324.960685 317.637164,320.380571 L307.036363,295.31655 Z" id="Rectangle-2-Copy-3" opacity="0.049999997" fill="#FFFFFF" sketch:type="MSShapeGroup" transform="translate(180.739860, 249.000000) scale(-1, 1) translate(-180.739860, -249.000000) "></path>
            <path d="M274.705691,567.355601 C277.034032,564.322184 278.417173,560.525898 278.417173,556.406358 L278.417173,465.608327 C278.417173,455.661894 270.35537,447.610001 260.410633,447.610001 L101.069087,447.610001 C91.1155772,447.610001 83.0625465,455.668126 83.0625465,465.608327 L83.0625465,556.406358 C83.0625465,566.352791 91.1243491,574.404684 101.069087,574.404684 L256.262931,574.404684 L284.985822,596.103986 C288.955108,599.102665 290.335574,597.938581 288.073763,593.512896 L274.70569,567.355601 Z" id="Rectangle-2-Copy-4" opacity="0.049999997" fill="#FFFFFF" sketch:type="MSShapeGroup" transform="translate(180.739860, 521.860001) scale(-1, 1) translate(-180.739860, -521.860001) "></path>
        </g>
    </g>
</svg>