<?xml version="1.0" encoding="UTF-8"?>
<svg width="922px" height="174px" viewBox="0 0 922 174" version="1.1" xmlns="http://www.w3.org/2000/svg" xmlns:xlink="http://www.w3.org/1999/xlink" xmlns:sketch="http://www.bohemiancoding.com/sketch/ns">
    <!-- Generator: Sketch 3.3.2 (12043) - http://www.bohemiancoding.com/sketch -->
    <title>Jobble_Logo</title>
    <desc>Created with Sketch.</desc>
    <defs>
        <linearGradient x1="49.1829673%" y1="17.4896369%" x2="51.1320962%" y2="100%" id="linearGradient-1">
            <stop stop-color="#774377" offset="0%"></stop>
            <stop stop-color="#422042" offset="100%"></stop>
        </linearGradient>
        <linearGradient x1="27.059505%" y1="36.4726134%" x2="81.7867899%" y2="70.8047301%" id="linearGradient-2">
            <stop stop-color="#774377" offset="0%"></stop>
            <stop stop-color="#422042" offset="100%"></stop>
        </linearGradient>
        <linearGradient x1="27.059505%" y1="27.041765%" x2="81.7867899%" y2="85.3091027%" id="linearGradient-3">
            <stop stop-color="#774377" offset="0%"></stop>
            <stop stop-color="#422042" offset="100%"></stop>
        </linearGradient>
        <linearGradient x1="27.059505%" y1="26.9228097%" x2="81.7867899%" y2="85.4920525%" id="linearGradient-4">
            <stop stop-color="#774377" offset="0%"></stop>
            <stop stop-color="#422042" offset="100%"></stop>
        </linearGradient>
        <linearGradient x1="27.059505%" y1="33.1080406%" x2="81.7867899%" y2="75.9793459%" id="linearGradient-5">
            <stop stop-color="#774377" offset="0%"></stop>
            <stop stop-color="#422042" offset="100%"></stop>
        </linearGradient>
        <linearGradient x1="27.059505%" y1="31.0625937%" x2="81.7867899%" y2="79.1251842%" id="linearGradient-6">
            <stop stop-color="#774377" offset="0%"></stop>
            <stop stop-color="#422042" offset="100%"></stop>
        </linearGradient>
        <linearGradient x1="19.6805497%" y1="8.95465934%" x2="50%" y2="99.999233%" id="linearGradient-7">
            <stop stop-color="#F4B366" offset="0%"></stop>
            <stop stop-color="#F97455" offset="100%"></stop>
        </linearGradient>
    </defs>
    <g id="Page-1" stroke="none" stroke-width="1" fill="none" fill-rule="evenodd" sketch:type="MSPage">
        <g id="Jobble_Logo" sketch:type="MSLayerGroup">
            <g id="Page-1">
                <g id="Artboard">
                    <g id="Logo">
                        <g id="Letters" sketch:type="MSShapeGroup">
                            <path d="M6.94605247,158.030195 C3.11787346,155.161671 0.000280864198,149.660624 0.000280864198,143.906719 C0.000280864198,134.093052 7.65944753,126.2011 17.4672253,126.2011 C22.0144167,126.2011 24.890466,127.392338 28.4742932,130.022052 C35.9003426,135.52591 42.3574105,138.400052 50.7327809,138.400052 C65.0849414,138.400052 73.7074722,130.022052 73.7074722,110.639148 L73.7074722,19.6836238 C73.7074722,9.38952857 81.8412994,1.25314762 92.1265463,1.25314762 C102.414602,1.25314762 110.548429,9.38952857 110.548429,19.6836238 L110.548429,112.316433 C110.548429,132.182576 104.810373,147.014052 94.7582438,157.074957 C84.4701883,167.363433 69.3905895,172.63129 51.2130586,172.63129 C32.0693549,172.63129 17.4672253,166.166576 6.94605247,158.030195 L6.94605247,158.030195 Z" id="Fill-1" fill="url(#linearGradient-2)"></path>
                            <path d="M404.773253,137.559724 C421.040907,137.559724 430.851494,131.758057 430.851494,119.162962 L430.851494,118.682533 C430.851494,107.309581 422.476123,100.285771 403.576772,100.285771 L360.983716,100.285771 L360.983716,137.559724 L404.773253,137.559724 L404.773253,137.559724 Z M394.965475,69.3023429 C411.23313,69.3023429 421.521185,63.9839143 421.521185,51.3972476 L421.521185,50.9140095 C421.521185,39.7798667 412.90708,33.4837238 397.350012,33.4837238 L360.983716,33.4837238 L360.983716,69.3023429 L394.965475,69.3023429 L394.965475,69.3023429 Z M325.086463,19.4557714 C325.086463,9.03805714 333.22029,0.808961905 343.516772,0.808961905 L402.854951,0.808961905 C421.995846,0.808961905 437.069827,6.13862857 446.644488,15.8174381 C454.298037,23.5604857 458.129025,33.0032952 458.129025,44.6206762 L458.129025,45.1039143 C458.129025,64.2311524 448.076895,74.8736286 436.114889,81.6473905 C455.500136,89.1572476 467.464951,100.53301 467.464951,123.281724 L467.464951,123.767771 C467.464951,154.742771 442.571957,170.237295 404.773253,170.237295 L343.516772,170.237295 C333.22029,170.237295 325.086463,162.01101 325.086463,151.601724 L325.086463,19.4557714 L325.086463,19.4557714 Z" id="Fill-3" fill="url(#linearGradient-3)"></path>
                            <path d="M567.630843,137.644852 C583.898497,137.644852 593.709083,131.854424 593.709083,119.298662 L593.709083,118.818233 C593.709083,107.476186 585.330904,100.469233 566.431552,100.469233 L523.844114,100.469233 L523.844114,137.644852 L567.630843,137.644852 L567.630843,137.644852 Z M557.820256,69.567281 C574.090719,69.567281 584.378775,64.2629 584.378775,51.7099476 L584.378775,51.2267095 C584.378775,40.1234714 575.761861,33.8441857 560.201985,33.8441857 L523.844114,33.8441857 L523.844114,69.567281 L557.820256,69.567281 L557.820256,69.567281 Z M487.944052,19.8499476 C487.944052,9.46032857 496.075071,1.25370952 506.374361,1.25370952 L565.709731,1.25370952 C584.850627,1.25370952 599.924608,6.56932857 609.499269,16.2200429 C617.158435,23.9434238 620.986614,33.3637571 620.986614,44.9502333 L620.986614,45.4306619 C620.986614,64.5101381 610.928867,75.1217095 598.96967,81.8786143 C618.357725,89.3688048 630.316923,100.713662 630.316923,123.406186 L630.316923,123.889424 C630.316923,154.785757 605.429546,170.238138 567.630843,170.238138 L506.374361,170.238138 C496.075071,170.238138 487.944052,162.034329 487.944052,151.650329 L487.944052,19.8499476 L487.944052,19.8499476 Z" id="Fill-6" fill="url(#linearGradient-4)"></path>
                            <path d="M650.797429,19.6830619 C650.797429,9.38896667 658.934065,1.25258571 669.233355,1.25258571 C679.515793,1.25258571 687.652429,9.38896667 687.652429,19.6830619 L687.652429,136.725014 L755.846256,136.725014 C765.176565,136.725014 772.605423,144.153395 772.605423,153.486633 C772.605423,162.819871 765.176565,170.237014 755.846256,170.237014 L669.233355,170.237014 C658.934065,170.237014 650.797429,162.100633 650.797429,151.806538 L650.797429,19.6830619 L650.797429,19.6830619 Z" id="Fill-8" fill="url(#linearGradient-5)"></path>
                            <path d="M792.990367,151.651171 L792.990367,19.8507905 C792.990367,9.46117143 801.121386,1.25455238 811.420676,1.25455238 L904.263145,1.25455238 C913.35191,1.25455238 920.772343,8.74193333 920.772343,17.9066 C920.772343,27.0796952 913.35191,34.3226476 904.263145,34.3226476 L829.598207,34.3226476 L829.598207,68.6044571 L893.494812,68.6044571 C902.586386,68.6044571 910.001201,76.0946476 910.001201,85.2649333 C910.001201,94.435219 902.586386,101.680981 893.494812,101.680981 L829.598207,101.680981 L829.598207,137.173695 L905.456818,137.173695 C914.545583,137.173695 921.960398,144.647029 921.960398,153.817314 C921.960398,162.9876 914.545583,170.236171 905.456818,170.236171 L811.420676,170.236171 C801.121386,170.236171 792.990367,162.032362 792.990367,151.651171" id="Fill-10" fill="url(#linearGradient-6)"></path>
                        </g>
                        <g id="Bubble" transform="translate(131.000000, 0.000000)">
                            <path d="M40.433084,160.058748 L0.928442748,170.636885 L11.7403511,130.287481 C4.29554198,117.485863 0,102.60687 0,86.7237252 C0,38.8285649 38.8298931,0 86.7290382,0 C134.618885,0 173.454092,38.8285649 173.454092,86.7237252 C173.454092,134.618885 134.618885,173.45542 86.7290382,173.45542 C69.6956336,173.459405 53.8297557,168.535603 40.433084,160.058748" id="Fill-1" fill="url(#linearGradient-7)" sketch:type="MSShapeGroup"></path>
                            <g id="Oval-2" transform="translate(30.000000, 77.000000)" fill="#FFFFFF" sketch:type="MSShapeGroup">
                                <g id="path-3-link">
                                    <circle id="path-3" cx="10" cy="10" r="10"></circle>
                                </g>
                                <g id="path-3-link">
                                    <circle id="path-3" cx="10" cy="10" r="10"></circle>
                                </g>
                            </g>
                            <g id="Oval-2" transform="translate(76.000000, 77.000000)" fill="#FFFFFF" sketch:type="MSShapeGroup">
                                <g id="path-5-link">
                                    <circle id="path-5" cx="10" cy="10" r="10"></circle>
                                </g>
                                <g id="path-5-link">
                                    <circle id="path-5" cx="10" cy="10" r="10"></circle>
                                </g>
                            </g>
                            <g id="Oval-2" transform="translate(123.000000, 77.000000)">
                                <g id="path-7-link" fill="#FFFFFF" sketch:type="MSShapeGroup">
                                    <circle id="path-7" cx="10" cy="10" r="10"></circle>
                                </g>
                                <g id="path-7-link"></g>
                            </g>
                        </g>
                    </g>
                </g>
            </g>
        </g>
    </g>
</svg>